<?xml version="1.0" standalone="no"?>
<!DOCTYPE svg PUBLIC "-//W3C//DTD SVG 20010904//EN"
 "http://www.w3.org/TR/2001/REC-SVG-20010904/DTD/svg10.dtd">
<svg version="1.0" xmlns="http://www.w3.org/2000/svg"
 width="300.000000pt" height="300.000000pt" viewBox="0 0 300.000000 300.000000"
 preserveAspectRatio="xMidYMid meet">
<metadata>
Created by potrace 1.11, written by Peter Selinger 2001-2013
</metadata>
<g transform="translate(0.000000,300.000000) scale(0.100000,-0.100000)"
fill="#000000" stroke="none">
<path d="M1115 2051 c-240 -43 -483 -137 -679 -264 -67 -43 -70 -47 -102 -127
-53 -130 -53 -130 12 -68 128 122 311 250 458 319 89 41 166 71 166 64 0 -2
-32 -20 -72 -40 -178 -90 -341 -232 -445 -387 -81 -123 -122 -222 -123 -301 0
-50 -8 -73 -66 -189 -111 -222 -108 -228 14 -23 l77 130 70 -3 c154 -7 351
103 560 313 150 149 234 276 235 351 1 123 -224 61 -460 -127 -91 -72 -228
-207 -278 -272 -45 -59 -52 -46 -18 29 118 258 430 486 806 589 l85 24 -70 -1
c-38 0 -115 -8 -170 -17z m-54 -331 c31 -17 24 -67 -18 -130 -73 -109 -225
-235 -376 -311 -192 -97 -274 -56 -177 89 87 130 306 294 458 343 67 21 87 23
113 9z"/>
<path d="M2013 1945 c-116 -32 -199 -99 -250 -203 -24 -50 -27 -69 -28 -152 0
-89 2 -99 34 -158 41 -75 103 -135 179 -170 49 -23 70 -27 147 -27 80 0 97 4
150 30 l60 30 3 74 3 74 -38 -33 c-75 -66 -163 -90 -245 -66 -65 19 -119 62
-156 124 -23 40 -27 58 -27 122 0 85 18 133 72 186 46 47 87 65 155 71 73 7
136 -15 195 -70 l43 -40 0 75 0 74 -38 22 c-43 24 -143 52 -182 51 -14 0 -49
-7 -77 -14z"/>
<path d="M1340 1890 l0 -50 80 0 80 0 0 -300 0 -300 55 0 55 0 0 300 0 300 80
0 80 0 0 50 0 50 -215 0 -215 0 0 -50z"/>
<path d="M2390 1580 l0 -350 55 0 55 0 0 144 0 143 69 5 c86 6 147 39 178 95
47 84 38 175 -24 244 -46 51 -107 69 -235 69 l-98 0 0 -350z m231 229 c49 -19
65 -96 29 -142 -21 -27 -74 -47 -122 -47 l-28 0 0 98 c0 54 3 102 7 106 9 8
76 -1 114 -15z"/>
</g>
</svg>
